<mxfile host="app.diagrams.net" modified="2023-08-24T21:17:46.879Z" agent="Mozilla/5.0 (Macintosh; Intel Mac OS X 10_15_7) AppleWebKit/605.1.15 (KHTML, like Gecko) Version/15.4 Safari/605.1.15" etag="7x0YVbVjjpQyYageY4Rw" version="21.6.3" type="github">
  <diagram name="Page-1" id="bPD4Tcdk-wz938tzmtfR">
    <mxGraphModel dx="838" dy="394" grid="1" gridSize="10" guides="1" tooltips="1" connect="1" arrows="1" fold="1" page="1" pageScale="1" pageWidth="850" pageHeight="1100" math="0" shadow="0">
      <root>
        <mxCell id="0" />
        <mxCell id="1" parent="0" />
        <mxCell id="4HQD0c8NArh-lSQrCMmP-1" value="Power Distribution" style="rounded=1;whiteSpace=wrap;html=1;" vertex="1" parent="1">
          <mxGeometry x="250" y="245" width="120" height="100" as="geometry" />
        </mxCell>
        <mxCell id="4HQD0c8NArh-lSQrCMmP-2" value="Analog Measurement&lt;br&gt;Front End" style="rounded=1;whiteSpace=wrap;html=1;" vertex="1" parent="1">
          <mxGeometry x="460" y="130" width="110" height="60" as="geometry" />
        </mxCell>
        <mxCell id="4HQD0c8NArh-lSQrCMmP-3" value="MCU Digital" style="rounded=1;whiteSpace=wrap;html=1;" vertex="1" parent="1">
          <mxGeometry x="460" y="245" width="120" height="100" as="geometry" />
        </mxCell>
        <mxCell id="4HQD0c8NArh-lSQrCMmP-4" value="UART" style="rounded=1;whiteSpace=wrap;html=1;" vertex="1" parent="1">
          <mxGeometry x="250" y="400" width="120" height="60" as="geometry" />
        </mxCell>
        <mxCell id="4HQD0c8NArh-lSQrCMmP-5" value="Output" style="rounded=1;whiteSpace=wrap;html=1;" vertex="1" parent="1">
          <mxGeometry x="680" y="265" width="120" height="60" as="geometry" />
        </mxCell>
        <mxCell id="4HQD0c8NArh-lSQrCMmP-8" value="" style="shape=flexArrow;endArrow=classic;html=1;rounded=0;entryX=0;entryY=0.25;entryDx=0;entryDy=0;exitX=1;exitY=0.25;exitDx=0;exitDy=0;" edge="1" parent="1" source="4HQD0c8NArh-lSQrCMmP-1" target="4HQD0c8NArh-lSQrCMmP-3">
          <mxGeometry width="50" height="50" relative="1" as="geometry">
            <mxPoint x="370" y="294.58" as="sourcePoint" />
            <mxPoint x="460" y="294.58" as="targetPoint" />
          </mxGeometry>
        </mxCell>
        <mxCell id="4HQD0c8NArh-lSQrCMmP-9" value="" style="shape=flexArrow;endArrow=classic;html=1;rounded=0;entryX=0;entryY=0.5;entryDx=0;entryDy=0;exitX=0.5;exitY=0;exitDx=0;exitDy=0;" edge="1" parent="1" source="4HQD0c8NArh-lSQrCMmP-1" target="4HQD0c8NArh-lSQrCMmP-2">
          <mxGeometry width="50" height="50" relative="1" as="geometry">
            <mxPoint x="320" y="240" as="sourcePoint" />
            <mxPoint x="370" y="190" as="targetPoint" />
            <Array as="points">
              <mxPoint x="310" y="160" />
            </Array>
          </mxGeometry>
        </mxCell>
        <mxCell id="4HQD0c8NArh-lSQrCMmP-10" value="AREF" style="text;html=1;align=center;verticalAlign=middle;resizable=0;points=[];autosize=1;strokeColor=none;fillColor=none;" vertex="1" parent="1">
          <mxGeometry x="331" y="118" width="60" height="30" as="geometry" />
        </mxCell>
        <mxCell id="4HQD0c8NArh-lSQrCMmP-11" value="" style="shape=flexArrow;endArrow=classic;html=1;rounded=0;entryX=0;entryY=0.5;entryDx=0;entryDy=0;exitX=1;exitY=0.5;exitDx=0;exitDy=0;" edge="1" parent="1" source="4HQD0c8NArh-lSQrCMmP-23" target="4HQD0c8NArh-lSQrCMmP-1">
          <mxGeometry width="50" height="50" relative="1" as="geometry">
            <mxPoint x="160" y="295" as="sourcePoint" />
            <mxPoint x="200" y="280" as="targetPoint" />
          </mxGeometry>
        </mxCell>
        <mxCell id="4HQD0c8NArh-lSQrCMmP-12" value="12 VDC @ 5 A" style="text;html=1;strokeColor=none;fillColor=none;align=center;verticalAlign=middle;whiteSpace=wrap;rounded=0;" vertex="1" parent="1">
          <mxGeometry x="160" y="228" width="60" height="30" as="geometry" />
        </mxCell>
        <mxCell id="4HQD0c8NArh-lSQrCMmP-13" value="" style="shape=flexArrow;endArrow=classic;html=1;rounded=0;entryX=0;entryY=0.5;entryDx=0;entryDy=0;exitX=1;exitY=0.5;exitDx=0;exitDy=0;" edge="1" parent="1" source="4HQD0c8NArh-lSQrCMmP-3" target="4HQD0c8NArh-lSQrCMmP-5">
          <mxGeometry width="50" height="50" relative="1" as="geometry">
            <mxPoint x="560" y="430" as="sourcePoint" />
            <mxPoint x="610" y="380" as="targetPoint" />
          </mxGeometry>
        </mxCell>
        <mxCell id="4HQD0c8NArh-lSQrCMmP-14" value="PWM" style="text;html=1;align=center;verticalAlign=middle;resizable=0;points=[];autosize=1;strokeColor=none;fillColor=none;" vertex="1" parent="1">
          <mxGeometry x="590" y="258" width="50" height="30" as="geometry" />
        </mxCell>
        <mxCell id="4HQD0c8NArh-lSQrCMmP-15" value="AREF" style="text;html=1;align=center;verticalAlign=middle;resizable=0;points=[];autosize=1;strokeColor=none;fillColor=none;" vertex="1" parent="1">
          <mxGeometry x="370" y="235" width="60" height="30" as="geometry" />
        </mxCell>
        <mxCell id="4HQD0c8NArh-lSQrCMmP-16" value="" style="shape=flexArrow;endArrow=classic;html=1;rounded=0;entryX=0;entryY=0.75;entryDx=0;entryDy=0;exitX=1;exitY=0.75;exitDx=0;exitDy=0;" edge="1" parent="1" source="4HQD0c8NArh-lSQrCMmP-1" target="4HQD0c8NArh-lSQrCMmP-3">
          <mxGeometry width="50" height="50" relative="1" as="geometry">
            <mxPoint x="380" y="300" as="sourcePoint" />
            <mxPoint x="470" y="301" as="targetPoint" />
          </mxGeometry>
        </mxCell>
        <mxCell id="4HQD0c8NArh-lSQrCMmP-17" value="VDD" style="text;html=1;align=center;verticalAlign=middle;resizable=0;points=[];autosize=1;strokeColor=none;fillColor=none;" vertex="1" parent="1">
          <mxGeometry x="366" y="288" width="50" height="30" as="geometry" />
        </mxCell>
        <mxCell id="4HQD0c8NArh-lSQrCMmP-18" value="OLED" style="rounded=1;whiteSpace=wrap;html=1;" vertex="1" parent="1">
          <mxGeometry x="496.25" y="460" width="47.5" height="20" as="geometry" />
        </mxCell>
        <mxCell id="4HQD0c8NArh-lSQrCMmP-19" value="" style="shape=flexArrow;endArrow=classic;html=1;rounded=0;entryX=0.5;entryY=0;entryDx=0;entryDy=0;exitX=0.5;exitY=1;exitDx=0;exitDy=0;" edge="1" parent="1" source="4HQD0c8NArh-lSQrCMmP-3" target="4HQD0c8NArh-lSQrCMmP-18">
          <mxGeometry width="50" height="50" relative="1" as="geometry">
            <mxPoint x="525" y="360" as="sourcePoint" />
            <mxPoint x="525" y="365" as="targetPoint" />
          </mxGeometry>
        </mxCell>
        <mxCell id="4HQD0c8NArh-lSQrCMmP-20" value="" style="shape=flexArrow;endArrow=classic;html=1;rounded=0;entryX=0.5;entryY=0;entryDx=0;entryDy=0;exitX=0.5;exitY=1;exitDx=0;exitDy=0;" edge="1" parent="1" source="4HQD0c8NArh-lSQrCMmP-1" target="4HQD0c8NArh-lSQrCMmP-4">
          <mxGeometry width="50" height="50" relative="1" as="geometry">
            <mxPoint x="370" y="370" as="sourcePoint" />
            <mxPoint x="460" y="370" as="targetPoint" />
          </mxGeometry>
        </mxCell>
        <mxCell id="4HQD0c8NArh-lSQrCMmP-21" value="VDD" style="text;html=1;align=center;verticalAlign=middle;resizable=0;points=[];autosize=1;strokeColor=none;fillColor=none;" vertex="1" parent="1">
          <mxGeometry x="316" y="345" width="50" height="30" as="geometry" />
        </mxCell>
        <mxCell id="4HQD0c8NArh-lSQrCMmP-23" value="PWR&lt;br&gt;IN" style="rounded=1;whiteSpace=wrap;html=1;" vertex="1" parent="1">
          <mxGeometry x="130" y="265" width="40" height="60" as="geometry" />
        </mxCell>
        <mxCell id="4HQD0c8NArh-lSQrCMmP-25" value="UART" style="rounded=1;whiteSpace=wrap;html=1;" vertex="1" parent="1">
          <mxGeometry x="130" y="390" width="40" height="80" as="geometry" />
        </mxCell>
        <mxCell id="4HQD0c8NArh-lSQrCMmP-26" value="5 VDC @ 500mA" style="text;html=1;align=center;verticalAlign=middle;resizable=0;points=[];autosize=1;strokeColor=none;fillColor=none;" vertex="1" parent="1">
          <mxGeometry x="160" y="360" width="120" height="30" as="geometry" />
        </mxCell>
        <mxCell id="4HQD0c8NArh-lSQrCMmP-29" value="" style="shape=flexArrow;endArrow=classic;startArrow=classic;html=1;rounded=0;exitX=1;exitY=0.5;exitDx=0;exitDy=0;entryX=0;entryY=0.5;entryDx=0;entryDy=0;" edge="1" parent="1" source="4HQD0c8NArh-lSQrCMmP-25" target="4HQD0c8NArh-lSQrCMmP-4">
          <mxGeometry width="100" height="100" relative="1" as="geometry">
            <mxPoint x="200" y="520" as="sourcePoint" />
            <mxPoint x="300" y="420" as="targetPoint" />
          </mxGeometry>
        </mxCell>
        <mxCell id="4HQD0c8NArh-lSQrCMmP-30" value="" style="shape=flexArrow;endArrow=classic;startArrow=classic;html=1;rounded=0;entryX=0.25;entryY=1;entryDx=0;entryDy=0;" edge="1" parent="1" source="4HQD0c8NArh-lSQrCMmP-4" target="4HQD0c8NArh-lSQrCMmP-3">
          <mxGeometry width="100" height="100" relative="1" as="geometry">
            <mxPoint x="391" y="429.58" as="sourcePoint" />
            <mxPoint x="471" y="429.58" as="targetPoint" />
            <Array as="points">
              <mxPoint x="490" y="430" />
            </Array>
          </mxGeometry>
        </mxCell>
        <mxCell id="4HQD0c8NArh-lSQrCMmP-31" value="Rotary Encoder" style="rounded=1;whiteSpace=wrap;html=1;" vertex="1" parent="1">
          <mxGeometry x="500" y="510" width="90" height="20" as="geometry" />
        </mxCell>
        <mxCell id="4HQD0c8NArh-lSQrCMmP-33" value="" style="shape=flexArrow;endArrow=classic;html=1;rounded=0;entryX=0.5;entryY=0;entryDx=0;entryDy=0;exitX=0.75;exitY=1;exitDx=0;exitDy=0;" edge="1" parent="1" source="4HQD0c8NArh-lSQrCMmP-3" target="4HQD0c8NArh-lSQrCMmP-31">
          <mxGeometry width="50" height="50" relative="1" as="geometry">
            <mxPoint x="543.75" y="355" as="sourcePoint" />
            <mxPoint x="543.75" y="470" as="targetPoint" />
          </mxGeometry>
        </mxCell>
      </root>
    </mxGraphModel>
  </diagram>
</mxfile>
